<svg width="52" height="52" viewBox="0 0 52 52" fill="none" xmlns="http://www.w3.org/2000/svg">
<rect width="52" height="52" fill="#1063FE"/>
<path d="M19.0637 16C17.8158 16 17 16.8866 17 18.0519C17 19.1915 17.7915 20.1034 19.0158 20.1034H19.0395C20.3117 20.1034 21.1034 19.1915 21.1034 18.0519C21.0797 16.8866 20.3117 16 19.0637 16Z" fill="white"/>
<path d="M17.5859 21.8621H21.1032V33H17.5859V21.8621Z" fill="white"/>
<path d="M30.1637 21.2759C28.0917 21.2759 26.7023 23.206 26.7023 23.206V21.5447H22.8613V33H26.7021V26.6029C26.7021 26.2605 26.7271 25.9185 26.8286 25.6737C27.1063 24.9898 27.7381 24.2813 28.7992 24.2813C30.1891 24.2813 30.7449 25.3318 30.7449 26.8718V33H34.5855V26.4318C34.5855 22.9132 32.6905 21.2759 30.1637 21.2759Z" fill="white"/>
</svg>
